<?xml version="1.0" encoding="UTF-8"?>
<svg version="1.1" xmlns="http://www.w3.org/2000/svg" width="512" height="512">
<path d="M0 0 C0.9724591 -0.06647205 1.94491821 -0.13294409 2.94684577 -0.20143044 C6.23642064 -0.42239908 9.52650529 -0.63385135 12.8168335 -0.84329224 C13.96645065 -0.91755432 15.11606781 -0.99181641 16.30052185 -1.06832886 C38.61045484 -2.49317228 60.92815819 -3.40155495 83.27167036 -4.08672982 C86.96457485 -4.20028876 90.65734021 -4.31789197 94.35003662 -4.4380188 C95.0846924 -4.46184817 95.81934818 -4.48567754 96.57626626 -4.51022901 C106.81620279 -4.8509967 117.02131163 -5.41448299 127.23892088 -6.16716683 C185.46996334 -10.45005238 244.72399018 -11.62257103 291.65270432 28.35589034 C328.55780306 60.55295577 342.31784774 97.90843855 345.717933 146.09008048 C348.38353372 187.5145392 346.59687891 229.11159024 344.6178751 270.52397096 C343.87692586 286.20363079 343.3814715 301.87782725 343.04681396 317.57125854 C343.01101214 319.24530898 343.01101214 319.24530898 342.97448705 320.95317861 C342.85586719 326.55617161 342.7410882 332.15923573 342.62805343 337.76234388 C341.93985261 371.64739937 340.9882448 405.51589979 339.56400847 439.37830496 C339.45276445 442.02584823 339.34309903 444.67345373 339.23355484 447.32106781 C339.06434953 451.38614908 338.8890197 455.45091646 338.70784785 459.51548174 C338.64241839 460.99111451 338.5783569 462.46680864 338.51574169 463.9425635 C338.43044957 465.93423825 338.3382222 467.9256125 338.24555779 469.91695786 C338.19552475 471.02659071 338.14549171 472.13622356 338.09394252 473.27948165 C337.86273193 475.74606323 337.86273193 475.74606323 336.86273193 476.74606323 C335.02359915 476.8445142 333.18063316 476.87161964 331.33886719 476.87190437 C329.52892336 476.87581599 329.52892336 476.87581599 327.68241501 476.87980664 C326.32617936 476.87764412 324.96994385 476.87538744 323.6137085 476.87304688 C322.1863768 476.87419773 320.7590454 476.87578501 319.33171463 476.87777412 C315.39095209 476.88197239 311.45021357 476.87987452 307.50945091 476.8767879 C303.26673591 476.87453603 299.0240252 476.87801234 294.78131104 476.88076782 C286.46250246 476.88522681 278.14370288 476.88424848 269.82489395 476.88135518 C263.0672015 476.87910165 256.30951157 476.87878841 249.55181885 476.879879 C248.59196807 476.88003223 247.6321173 476.88018546 246.64318013 476.88034334 C244.6935854 476.88066305 242.74399066 476.88098726 240.79439592 476.88131593 C222.49025199 476.8841711 204.18611305 476.88088312 185.88196993 476.87551557 C170.15810684 476.87104749 154.43425114 476.87182342 138.71038818 476.87643433 C120.47410841 476.88177944 102.23783303 476.88389641 84.00155258 476.88082206 C82.05891673 476.8805035 80.11628087 476.88018913 78.17364502 476.879879 C77.21769857 476.87972472 76.26175211 476.87957045 75.27683759 476.8794115 C68.52311934 476.87854615 61.76940386 476.88000959 55.01568604 476.88235855 C46.79111126 476.88515605 38.56654603 476.88441935 30.34197235 476.87907781 C26.14143345 476.87644011 21.9409105 476.87543687 17.7403717 476.87872696 C13.90133736 476.88168854 10.06233388 476.88009944 6.22330236 476.87474941 C4.82830381 476.87362463 3.43330269 476.87421774 2.03830576 476.8766252 C0.15440447 476.87962908 -1.72950404 476.87597583 -3.61340332 476.87190437 C-4.6635474 476.87174202 -5.71369148 476.87157967 -6.79565811 476.8714124 C-9.13726807 476.74606323 -9.13726807 476.74606323 -10.13726807 475.74606323 C-10.2370202 473.22948385 -10.27088828 470.74030317 -10.26310921 468.22317505 C-10.26456265 467.42203167 -10.26601609 466.6208883 -10.26751357 465.79546785 C-10.27120048 463.0761817 -10.26767479 460.35695066 -10.26425171 457.63766479 C-10.26540247 455.68235876 -10.26698968 453.72705295 -10.26897895 451.77174759 C-10.27317851 446.37158576 -10.27107878 440.97144145 -10.26799273 435.57127953 C-10.26574139 429.75799817 -10.26921692 423.94471995 -10.27197266 418.13143921 C-10.27643221 406.73250751 -10.27545307 395.33358238 -10.27256002 383.93465042 C-10.2703067 374.67505082 -10.26999315 365.41545307 -10.27108383 356.15585327 C-10.27123706 354.84075626 -10.2713903 353.52565924 -10.27154817 352.1707108 C-10.27178774 350.16919115 -10.27202731 348.16767149 -10.27227507 346.16615184 C-10.27533694 321.13244077 -10.27255606 296.09873328 -10.26717817 271.06502277 C-10.26243225 248.80375308 -10.26285686 226.54248912 -10.26763916 204.28121948 C-10.27298896 179.29451281 -10.27511983 154.30780931 -10.2720269 129.32110214 C-10.27170833 126.65949249 -10.27139396 123.99788284 -10.27108383 121.33627319 C-10.27092956 120.02652063 -10.27077528 118.71676806 -10.27061633 117.36732602 C-10.2697509 108.11291506 -10.27121461 98.85850611 -10.27356339 89.60409546 C-10.27636057 78.33458451 -10.27562486 67.06508052 -10.27028264 55.79557037 C-10.26764451 50.03962826 -10.26664243 44.28369778 -10.26993179 38.52775574 C-10.27289249 33.26759965 -10.27130577 28.00746609 -10.26595424 22.74731207 C-10.26482908 20.83549316 -10.2654234 18.92367238 -10.26783003 17.01185465 C-10.27083198 14.4308591 -10.26779166 11.84994269 -10.26310921 9.26895142 C-10.26545037 8.51140454 -10.26779154 7.75385766 -10.27020365 6.97335482 C-10.24141526 -0.86253679 -6.96948663 0.45753332 0 0 Z " fill="#F1F1F2" transform="translate(92.13726806640625,17.253936767578125)"/>
<path d="M0 0 C5.93798299 3.28484165 10.21193166 6.30715568 13.5703125 12.421875 C13.75 15.9375 13.75 15.9375 13.4453125 19.671875 C13.23875386 26.2494768 14.17174293 29.90352348 18.0625 35.17578125 C22.86652386 42.33203441 22.90170042 52.11431483 21.5703125 60.421875 C20.11796353 64.11442253 18.34870534 67.37254315 16.37109375 70.80859375 C14.21479709 74.77232551 13.38062061 78.83822127 12.5078125 83.234375 C10.58205379 92.62414486 6.77648487 98.95479723 -0.4296875 105.421875 C-1.28820312 105.95683594 -2.14671875 106.49179688 -3.03125 107.04296875 C-6.31133556 110.29634352 -6.2073404 113.288884 -6.2421875 117.671875 C-6.26732422 118.41695313 -6.29246094 119.16203125 -6.31835938 119.9296875 C-6.37701852 121.75985293 -6.4062683 123.59091953 -6.4296875 125.421875 C-4.62371094 125.40447266 -4.62371094 125.40447266 -2.78125 125.38671875 C-1.20573071 125.37734066 0.36979025 125.36824048 1.9453125 125.359375 C2.739375 125.35099609 3.5334375 125.34261719 4.3515625 125.33398438 C10.34375 125.30859375 10.34375 125.30859375 12.5703125 126.421875 C12.9003125 127.411875 13.2303125 128.401875 13.5703125 129.421875 C15.42587628 130.85406258 15.42587628 130.85406258 17.6953125 132.171875 C27.87943289 138.77299265 34.3071716 147.62449661 37.5703125 159.421875 C37.83837319 162.37946054 37.82753628 165.3171854 37.80078125 168.28515625 C37.80032303 169.1177446 37.79986481 169.95033295 37.7993927 170.80815125 C37.79638537 172.55709266 37.7885449 174.30603176 37.77612305 176.05493164 C37.7577529 178.74309669 37.75561435 181.43091907 37.75585938 184.11914062 C37.75094792 185.8203155 37.74512123 187.52148804 37.73828125 189.22265625 C37.73716843 190.02987625 37.7360556 190.83709625 37.73490906 191.66877747 C37.6863983 197.3057892 37.6863983 197.3057892 36.5703125 198.421875 C34.92540701 198.51796163 33.27635559 198.54375287 31.62864685 198.54212952 C30.55867462 198.54350418 29.48870239 198.54487885 28.38630676 198.54629517 C27.20235825 198.54269989 26.01840973 198.53910461 24.79858398 198.53540039 C22.94030975 198.53561943 22.94030975 198.53561943 21.04449463 198.5358429 C17.63761417 198.53526392 14.23079366 198.53023459 10.82392383 198.52326894 C7.26714424 198.51703493 3.71036392 198.51643156 0.15357971 198.51524353 C-6.58605332 198.51213035 -13.32567021 198.50391715 -20.06529611 198.49389404 C-27.73627148 198.48273248 -35.40724761 198.47722235 -43.07822907 198.47219861 C-58.86205791 198.46173452 -74.64587063 198.44413535 -90.4296875 198.421875 C-91.96591786 195.34941428 -91.634409 192.11212321 -91.66796875 188.73828125 C-91.6760405 187.96814194 -91.68411224 187.19800262 -91.69242859 186.40452576 C-91.70627776 184.767835 -91.71699618 183.13111526 -91.72485352 181.49438477 C-91.73629883 179.83707084 -91.75663058 178.17979156 -91.78637695 176.52270508 C-92.03298295 162.78303111 -90.57575231 151.37002461 -81.4296875 140.421875 C-73.45147823 132.38054699 -73.45147823 132.38054699 -69.3125 130.41796875 C-67.24797332 129.54058962 -67.24797332 129.54058962 -66.22265625 127.3125 C-64.06187817 125.03403248 -63.4585363 125.12633141 -60.41796875 125.03125 C-58.85889611 125.05778741 -57.30006919 125.10541901 -55.7421875 125.171875 C-54.94490234 125.18992188 -54.14761719 125.20796875 -53.32617188 125.2265625 C-51.36016301 125.27365253 -49.39477256 125.34539601 -47.4296875 125.421875 C-46.77907499 115.49746026 -46.77907499 115.49746026 -50.51171875 106.70703125 C-52.25474382 105.26191452 -54.03475948 103.86033688 -55.84765625 102.50390625 C-61.29715263 98.109683 -64.81286053 91.1831514 -66.4296875 84.421875 C-66.5121875 83.143125 -66.5946875 81.864375 -66.6796875 80.546875 C-67.14299637 76.23891535 -69.0454345 73.98179533 -71.734375 70.6953125 C-79.34795173 60.48540085 -81.4334717 49.92489294 -80.4296875 37.421875 C-78.49559444 28.33947853 -72.50010033 21.11252608 -65.08984375 15.71875 C-61.47516253 13.56847809 -58.97888714 12.46841734 -54.7421875 12.109375 C-50.29014561 11.18536631 -49.5973512 9.20726964 -47.171875 5.5625 C-36.62543275 -7.39590886 -13.85317949 -6.4382923 0 0 Z " fill="#272324" transform="translate(220.4296875,59.578125)"/>
<path d="M0 0 C0.9724591 -0.06647205 1.94491821 -0.13294409 2.94684577 -0.20143044 C6.23642064 -0.42239908 9.52650529 -0.63385135 12.8168335 -0.84329224 C13.96645065 -0.91755432 15.11606781 -0.99181641 16.30052185 -1.06832886 C38.61045484 -2.49317228 60.92815819 -3.40155495 83.27167036 -4.08672982 C86.96457485 -4.20028876 90.65734021 -4.31789197 94.35003662 -4.4380188 C95.0846924 -4.46184817 95.81934818 -4.48567754 96.57626626 -4.51022901 C106.81620279 -4.8509967 117.02131163 -5.41448299 127.23892088 -6.16716683 C185.46996334 -10.45005238 244.72399018 -11.62257103 291.65270432 28.35589034 C328.55780306 60.55295577 342.31784774 97.90843855 345.717933 146.09008048 C348.38353372 187.5145392 346.59687891 229.11159024 344.6178751 270.52397096 C343.87692586 286.20363079 343.3814715 301.87782725 343.04681396 317.57125854 C343.01101214 319.24530898 343.01101214 319.24530898 342.97448705 320.95317861 C342.85586719 326.55617161 342.7410882 332.15923573 342.62805343 337.76234388 C341.93985261 371.64739937 340.9882448 405.51589979 339.56400847 439.37830496 C339.45276445 442.02584823 339.34309903 444.67345373 339.23355484 447.32106781 C339.06434953 451.38614908 338.8890197 455.45091646 338.70784785 459.51548174 C338.64241839 460.99111451 338.5783569 462.46680864 338.51574169 463.9425635 C338.43044957 465.93423825 338.3382222 467.9256125 338.24555779 469.91695786 C338.19552475 471.02659071 338.14549171 472.13622356 338.09394252 473.27948165 C337.86273193 475.74606323 337.86273193 475.74606323 336.86273193 476.74606323 C335.02359915 476.8445142 333.18063316 476.87161964 331.33886719 476.87190437 C329.52892336 476.87581599 329.52892336 476.87581599 327.68241501 476.87980664 C326.32617936 476.87764412 324.96994385 476.87538744 323.6137085 476.87304688 C322.1863768 476.87419773 320.7590454 476.87578501 319.33171463 476.87777412 C315.39095209 476.88197239 311.45021357 476.87987452 307.50945091 476.8767879 C303.26673591 476.87453603 299.0240252 476.87801234 294.78131104 476.88076782 C286.46250246 476.88522681 278.14370288 476.88424848 269.82489395 476.88135518 C263.0672015 476.87910165 256.30951157 476.87878841 249.55181885 476.879879 C248.59196807 476.88003223 247.6321173 476.88018546 246.64318013 476.88034334 C244.6935854 476.88066305 242.74399066 476.88098726 240.79439592 476.88131593 C222.49025199 476.8841711 204.18611305 476.88088312 185.88196993 476.87551557 C170.15810684 476.87104749 154.43425114 476.87182342 138.71038818 476.87643433 C120.47410841 476.88177944 102.23783303 476.88389641 84.00155258 476.88082206 C82.05891673 476.8805035 80.11628087 476.88018913 78.17364502 476.879879 C77.21769857 476.87972472 76.26175211 476.87957045 75.27683759 476.8794115 C68.52311934 476.87854615 61.76940386 476.88000959 55.01568604 476.88235855 C46.79111126 476.88515605 38.56654603 476.88441935 30.34197235 476.87907781 C26.14143345 476.87644011 21.9409105 476.87543687 17.7403717 476.87872696 C13.90133736 476.88168854 10.06233388 476.88009944 6.22330236 476.87474941 C4.82830381 476.87362463 3.43330269 476.87421774 2.03830576 476.8766252 C0.15440447 476.87962908 -1.72950404 476.87597583 -3.61340332 476.87190437 C-4.6635474 476.87174202 -5.71369148 476.87157967 -6.79565811 476.8714124 C-9.13726807 476.74606323 -9.13726807 476.74606323 -10.13726807 475.74606323 C-10.2370202 473.22948385 -10.27088828 470.74030317 -10.26310921 468.22317505 C-10.26456265 467.42203167 -10.26601609 466.6208883 -10.26751357 465.79546785 C-10.27120048 463.0761817 -10.26767479 460.35695066 -10.26425171 457.63766479 C-10.26540247 455.68235876 -10.26698968 453.72705295 -10.26897895 451.77174759 C-10.27317851 446.37158576 -10.27107878 440.97144145 -10.26799273 435.57127953 C-10.26574139 429.75799817 -10.26921692 423.94471995 -10.27197266 418.13143921 C-10.27643221 406.73250751 -10.27545307 395.33358238 -10.27256002 383.93465042 C-10.2703067 374.67505082 -10.26999315 365.41545307 -10.27108383 356.15585327 C-10.27123706 354.84075626 -10.2713903 353.52565924 -10.27154817 352.1707108 C-10.27178774 350.16919115 -10.27202731 348.16767149 -10.27227507 346.16615184 C-10.27533694 321.13244077 -10.27255606 296.09873328 -10.26717817 271.06502277 C-10.26243225 248.80375308 -10.26285686 226.54248912 -10.26763916 204.28121948 C-10.27298896 179.29451281 -10.27511983 154.30780931 -10.2720269 129.32110214 C-10.27170833 126.65949249 -10.27139396 123.99788284 -10.27108383 121.33627319 C-10.27092956 120.02652063 -10.27077528 118.71676806 -10.27061633 117.36732602 C-10.2697509 108.11291506 -10.27121461 98.85850611 -10.27356339 89.60409546 C-10.27636057 78.33458451 -10.27562486 67.06508052 -10.27028264 55.79557037 C-10.26764451 50.03962826 -10.26664243 44.28369778 -10.26993179 38.52775574 C-10.27289249 33.26759965 -10.27130577 28.00746609 -10.26595424 22.74731207 C-10.26482908 20.83549316 -10.2654234 18.92367238 -10.26783003 17.01185465 C-10.27083198 14.4308591 -10.26779166 11.84994269 -10.26310921 9.26895142 C-10.26545037 8.51140454 -10.26779154 7.75385766 -10.27020365 6.97335482 C-10.24141526 -0.86253679 -6.96948663 0.45753332 0 0 Z M-3.13726807 7.74606323 C-3.13726807 160.20606323 -3.13726807 312.66606323 -3.13726807 469.74606323 C107.08273193 469.74606323 217.30273193 469.74606323 330.86273193 469.74606323 C330.86273193 347.97606323 330.86273193 226.20606323 330.86273193 100.74606323 C300.83273193 100.41606323 270.80273193 100.08606323 239.86273193 99.74606323 C226.14494138 72.31048212 238.20353214 38.41808214 237.86273193 7.74606323 C158.33273193 7.74606323 78.80273193 7.74606323 -3.13726807 7.74606323 Z " fill="#242021" transform="translate(92.13726806640625,17.253936767578125)"/>
<path d="M0 0 C79.53 0 159.06 0 241 0 C241 0.33 241 0.66 241 1 C161.8 1 82.6 1 1 1 C1 152.8 1 304.6 1 461 C108.58 461 216.16 461 327 461 C327 339.56 327 218.12 327 93 C329.31 93 331.62 93 334 93 C334 214.77 334 336.54 334 462 C223.78 462 113.56 462 0 462 C0 309.54 0 157.08 0 0 Z " fill="#B1B0B1" transform="translate(89,25)"/>
<path d="M0 0 C6.36338698 2.47205107 11.88132887 4.68843898 15.0625 11.05078125 C15.3214111 15.04479744 15.33367713 19.04074341 15.35766602 23.04248047 C15.37469581 25.01553776 15.41855073 26.98830498 15.46289062 28.9609375 C15.53572905 39.97634812 13.64101256 48.17205009 5.9921875 56.296875 C-2.236338 63.77583846 -10.66965197 65.79945258 -21.5625 65.484375 C-30.04809038 64.89428087 -36.57330271 60.84583849 -42.4375 54.86328125 C-49.11978847 46.39904919 -50.31954398 38.35461704 -50.5625 27.80078125 C-50.59794922 26.85372314 -50.63339844 25.90666504 -50.66992188 24.9309082 C-50.65767501 19.13967356 -49.85939616 15.52846854 -45.68945312 11.36962891 C-42.91099609 9.27804239 -40.25412456 8.57524653 -36.875 7.86328125 C-35.55156926 7.56083448 -34.22865945 7.25610022 -32.90625 6.94921875 C-31.91431641 6.73023926 -31.91431641 6.73023926 -30.90234375 6.50683594 C-27.85231121 5.79890095 -24.86899159 4.90158602 -21.875 3.98828125 C-20.87339844 3.68792969 -19.87179688 3.38757813 -18.83984375 3.078125 C-15.83835603 2.08297482 -15.83835603 2.08297482 -12.76171875 0.4609375 C-8.17461462 -1.82944229 -4.84634252 -1.56603887 0 0 Z " fill="#FDC6C6" transform="translate(210.9375,101.94921875)"/>
<path d="M0 0 C11.60693644 9.94880267 22.50877888 20.38783216 33.25 31.25 C42.81297808 40.98646801 42.81297808 40.98646801 52.91699219 50.1484375 C57.41272518 54.14464461 61.61353903 58.46657032 65.85742188 62.72705078 C67.52098408 64.3960527 69.18992925 66.05954154 70.859375 67.72265625 C71.91698813 68.78092884 72.97429174 69.83951086 74.03125 70.8984375 C74.53112427 71.39628754 75.03099854 71.89413757 75.54602051 72.40707397 C79 75.88499906 79 75.88499906 79 77 C52.93 77 26.86 77 0 77 C0 51.59 0 26.18 0 0 Z " fill="#D1D1D2" transform="translate(338,34)"/>
<path d="M0 0 C1.98 0 3.96 0 6 0 C6 151.8 6 303.6 6 460 C4.02 460 2.04 460 0 460 C0 308.2 0 156.4 0 0 Z " fill="#FFFFFF" transform="translate(90,26)"/>
<path d="M0 0 C3.99863294 2.15926179 6.29293536 4.4108365 8.75 8.25 C9.12239025 11.47738221 9.20147903 13.34704195 7.75 16.25 C7.22575853 19.39544884 7.23711787 21.44983895 8.984375 24.17578125 C10.05600782 25.54184784 11.13303154 26.90369917 12.21484375 28.26171875 C17.3143237 34.86638871 17.10337542 41.27942105 16.75 49.25 C16.09 48.92 15.43 48.59 14.75 48.25 C14.46125 47.1775 14.1725 46.105 13.875 45 C11.88092324 38.35307746 7.82990523 35.15322531 1.875 31.9375 C-5.44215647 28.0314231 -11.93735559 26.81167985 -20.25 28.25 C-22.40477296 29.01682312 -24.18958354 29.92583079 -26.14453125 31.10546875 C-32.6502139 34.64195301 -40.44898531 36.08683507 -47.625 37.6875 C-54.06833137 39.27066993 -58.38680739 41.39310466 -62.125 47.125 C-63.34475305 50.51320292 -63.89230627 53.6730627 -64.25 57.25 C-68.02752343 55.36123829 -68.79877359 50.51885256 -70.1953125 46.73828125 C-72.51687426 39.05993069 -72.00845588 31.40480138 -68.25 24.25 C-64.53186809 19.08729587 -60.49081108 14.16045237 -54.25 12.25 C-52.7485729 12.38032279 -51.24854319 12.52738854 -49.75 12.6875 C-47.4181652 12.89966424 -47.4181652 12.89966424 -45.25 12.25 C-43.37789534 9.90650209 -42.14419307 7.47709582 -40.7890625 4.8046875 C-32.97102488 -8.17246124 -11.79278152 -5.25096023 0 0 Z " fill="#CB8A49" transform="translate(218.25,66.75)"/>
<path d="M0 0 C2.51197954 1.10399101 4.01773246 2.79125625 5.83984375 4.80859375 C5.34484375 5.20046875 4.84984375 5.59234375 4.33984375 5.99609375 C2.65862231 7.73322971 2.65862231 7.73322971 2.37915039 10.17480469 C2.58680663 13.048902 2.58680663 13.048902 5.30249023 14.82910156 C6.42727783 15.46686523 7.55206543 16.10462891 8.7109375 16.76171875 C9.30785904 17.10740906 9.90478058 17.45309937 10.51979065 17.80926514 C12.42939527 18.91019674 14.35247878 19.98460795 16.27734375 21.05859375 C17.57065996 21.7964296 18.86299192 22.53599357 20.15429688 23.27734375 C22.51294179 24.63134393 24.87721883 25.97236964 27.24780273 27.30566406 C29.83984375 28.80859375 29.83984375 28.80859375 30.83984375 29.80859375 C30.83984375 38.38859375 30.83984375 46.96859375 30.83984375 55.80859375 C13.01984375 55.80859375 -4.80015625 55.80859375 -23.16015625 55.80859375 C-23.16015625 19.24352896 -23.16015625 19.24352896 -14.2265625 8.82421875 C-4.74866008 -0.42076735 -4.74866008 -0.42076735 0 0 Z " fill="#67A4DD" transform="translate(159.16015625,195.19140625)"/>
<path d="M0 0 C8.83410062 3.69799561 15.37803728 10.80882233 19.34375 19.3828125 C22.38892649 26.87434472 22.2492063 33.89863427 22 41.875 C21.896875 46.5775 21.79375 51.28 21.6875 56.125 C4.1975 56.125 -13.2925 56.125 -31.3125 56.125 C-31.3125 47.215 -31.3125 38.305 -31.3125 29.125 C-29.45882812 28.06539062 -27.60515625 27.00578125 -25.6953125 25.9140625 C-23.90108852 24.88553239 -22.10749781 23.85590637 -20.31396484 22.82617188 C-19.06722754 22.11115522 -17.81983513 21.39727957 -16.57177734 20.68457031 C-14.77788587 19.65989722 -12.98639093 18.63114284 -11.1953125 17.6015625 C-10.11652832 16.98361816 -9.03774414 16.36567383 -7.92626953 15.72900391 C-5.27213156 14.23985014 -5.27213156 14.23985014 -3.3125 12.125 C-3.64943943 8.75560567 -5.20069408 6.69589417 -7.3125 4.125 C-3.116149 0.16844049 -3.116149 0.16844049 0 0 Z " fill="#67A5DD" transform="translate(229.3125,194.875)"/>
<path d="M0 0 C1.43999397 0.00129972 1.43999397 0.00129972 2.90907872 0.0026257 C3.92053743 -0.00034542 4.93199614 -0.00331654 5.97410512 -0.0063777 C9.3912501 -0.01510633 12.80836022 -0.01657644 16.22551548 -0.01806521 C18.66411489 -0.02269042 21.10271356 -0.02771467 23.54131138 -0.03311038 C30.18587113 -0.0462645 36.83041713 -0.05272139 43.47498667 -0.05712104 C47.62104972 -0.05988029 51.76711042 -0.06411706 55.91317189 -0.06862521 C67.38418697 -0.08082043 78.85520016 -0.0911192 90.32622159 -0.0945003 C91.06089937 -0.09471987 91.79557715 -0.09493944 92.5525179 -0.09516566 C93.65722683 -0.09549307 93.65722683 -0.09549307 94.78425312 -0.0958271 C96.27671818 -0.09627057 97.76918324 -0.09671714 99.2616483 -0.09716678 C100.37212834 -0.09749892 100.37212834 -0.09749892 101.50504233 -0.09783778 C113.5048532 -0.10178702 125.5046034 -0.11924374 137.50439082 -0.1425263 C149.81366448 -0.16621727 162.12290765 -0.17870113 174.43220448 -0.17986822 C181.34775616 -0.18078626 188.26322879 -0.18657089 195.17875874 -0.20468783 C201.68100044 -0.22166157 208.18311822 -0.22335834 214.68538487 -0.21454883 C217.07716472 -0.21377468 219.46895242 -0.21817036 221.86071217 -0.22800708 C225.11562343 -0.24061274 228.36999253 -0.23491196 231.62489903 -0.22442508 C233.05820083 -0.23650968 233.05820083 -0.23650968 234.52045822 -0.24883842 C235.82431605 -0.23895366 235.82431605 -0.23895366 237.15451443 -0.2288692 C237.90619833 -0.22946629 238.65788224 -0.23006338 239.43234444 -0.23067856 C241.90561891 0.24055084 242.8054658 1.24365931 244.39397252 3.1430676 C242.51897252 7.0180676 242.51897252 7.0180676 241.39397252 8.1430676 C238.21302106 8.24560434 235.05363771 8.28190891 231.87213719 8.27678037 C230.85997291 8.27904592 229.84780863 8.28131148 228.80497271 8.28364569 C225.38549061 8.29001737 221.96604782 8.28915431 218.54656041 8.28833127 C216.10633873 8.29132078 213.66611753 8.29472282 211.22589695 8.29850888 C205.26898218 8.30645173 199.31208309 8.30956444 193.35516448 8.31012126 C188.51538642 8.31059566 183.67561164 8.3126466 178.83583462 8.31582189 C165.12816539 8.32463281 151.420504 8.32924058 137.71283192 8.32849141 C136.97314787 8.32845146 136.23346382 8.3284115 135.47136509 8.32837033 C134.73078275 8.32832945 133.99020041 8.32828857 133.22717618 8.32824645 C121.22023779 8.32783985 109.21333074 8.33741177 97.20640142 8.3515087 C84.89148272 8.36585368 72.57657932 8.37277992 60.26165205 8.37191492 C53.34224 8.3715823 46.42286079 8.37435772 39.50345623 8.38509297 C32.99877158 8.39511975 26.49414468 8.39488189 19.98945248 8.38757634 C17.59564309 8.38652531 15.20182946 8.38892381 12.80802739 8.3949368 C9.55286526 8.40258683 6.29794786 8.39805865 3.04279149 8.39030576 C1.60512042 8.3980211 1.60512042 8.3980211 0.1384055 8.40589231 C-0.728842 8.40129352 -1.5960895 8.39669472 -2.48961723 8.39195657 C-3.24168085 8.39217394 -3.99374447 8.3923913 -4.7685979 8.39261526 C-6.60602748 8.1430676 -6.60602748 8.1430676 -8.60602748 6.1430676 C-7.81300168 -0.35974396 -6.3198618 0.0280959 0 0 Z " fill="#343031" transform="translate(139.60602748394012,433.8569324016571)"/>
<path d="M0 0 C1.43999397 0.00129972 1.43999397 0.00129972 2.90907872 0.0026257 C3.92053743 -0.00034542 4.93199614 -0.00331654 5.97410512 -0.0063777 C9.3912501 -0.01510633 12.80836022 -0.01657644 16.22551548 -0.01806521 C18.66411489 -0.02269042 21.10271356 -0.02771467 23.54131138 -0.03311038 C30.18587113 -0.0462645 36.83041713 -0.05272139 43.47498667 -0.05712104 C47.62104972 -0.05988029 51.76711042 -0.06411706 55.91317189 -0.06862521 C67.38418697 -0.08082043 78.85520016 -0.0911192 90.32622159 -0.0945003 C91.06089937 -0.09471987 91.79557715 -0.09493944 92.5525179 -0.09516566 C93.65722683 -0.09549307 93.65722683 -0.09549307 94.78425312 -0.0958271 C96.27671818 -0.09627057 97.76918324 -0.09671714 99.2616483 -0.09716678 C100.37212834 -0.09749892 100.37212834 -0.09749892 101.50504233 -0.09783778 C113.5048532 -0.10178702 125.5046034 -0.11924374 137.50439082 -0.1425263 C149.81366448 -0.16621727 162.12290765 -0.17870113 174.43220448 -0.17986822 C181.34775616 -0.18078626 188.26322879 -0.18657089 195.17875874 -0.20468783 C201.68100044 -0.22166157 208.18311822 -0.22335834 214.68538487 -0.21454883 C217.07716472 -0.21377468 219.46895242 -0.21817036 221.86071217 -0.22800708 C225.11562343 -0.24061274 228.36999253 -0.23491196 231.62489903 -0.22442508 C233.05820083 -0.23650968 233.05820083 -0.23650968 234.52045822 -0.24883842 C235.82431605 -0.23895366 235.82431605 -0.23895366 237.15451443 -0.2288692 C237.90619833 -0.22946629 238.65788224 -0.23006338 239.43234444 -0.23067856 C241.90561891 0.24055084 242.8054658 1.24365931 244.39397252 3.1430676 C242.51897252 7.0180676 242.51897252 7.0180676 241.39397252 8.1430676 C238.21302106 8.24560434 235.05363771 8.28190891 231.87213719 8.27678037 C230.85997291 8.27904592 229.84780863 8.28131148 228.80497271 8.28364569 C225.38549061 8.29001737 221.96604782 8.28915431 218.54656041 8.28833127 C216.10633873 8.29132078 213.66611753 8.29472282 211.22589695 8.29850888 C205.26898218 8.30645173 199.31208309 8.30956444 193.35516448 8.31012126 C188.51538642 8.31059566 183.67561164 8.3126466 178.83583462 8.31582189 C165.12816539 8.32463281 151.420504 8.32924058 137.71283192 8.32849141 C136.97314787 8.32845146 136.23346382 8.3284115 135.47136509 8.32837033 C134.73078275 8.32832945 133.99020041 8.32828857 133.22717618 8.32824645 C121.22023779 8.32783985 109.21333074 8.33741177 97.20640142 8.3515087 C84.89148272 8.36585368 72.57657932 8.37277992 60.26165205 8.37191492 C53.34224 8.3715823 46.42286079 8.37435772 39.50345623 8.38509297 C32.99877158 8.39511975 26.49414468 8.39488189 19.98945248 8.38757634 C17.59564309 8.38652531 15.20182946 8.38892381 12.80802739 8.3949368 C9.55286526 8.40258683 6.29794786 8.39805865 3.04279149 8.39030576 C1.60512042 8.3980211 1.60512042 8.3980211 0.1384055 8.40589231 C-0.728842 8.40129352 -1.5960895 8.39669472 -2.48961723 8.39195657 C-3.24168085 8.39217394 -3.99374447 8.3923913 -4.7685979 8.39261526 C-6.60602748 8.1430676 -6.60602748 8.1430676 -8.60602748 6.1430676 C-7.81300168 -0.35974396 -6.3198618 0.0280959 0 0 Z " fill="#343031" transform="translate(139.60602748394012,394.8569324016571)"/>
<path d="M0 0 C1.43999397 0.00129972 1.43999397 0.00129972 2.90907872 0.0026257 C3.92053743 -0.00034542 4.93199614 -0.00331654 5.97410512 -0.0063777 C9.3912501 -0.01510633 12.80836022 -0.01657644 16.22551548 -0.01806521 C18.66411489 -0.02269042 21.10271356 -0.02771467 23.54131138 -0.03311038 C30.18587113 -0.0462645 36.83041713 -0.05272139 43.47498667 -0.05712104 C47.62104972 -0.05988029 51.76711042 -0.06411706 55.91317189 -0.06862521 C67.38418697 -0.08082043 78.85520016 -0.0911192 90.32622159 -0.0945003 C91.06089937 -0.09471987 91.79557715 -0.09493944 92.5525179 -0.09516566 C93.65722683 -0.09549307 93.65722683 -0.09549307 94.78425312 -0.0958271 C96.27671818 -0.09627057 97.76918324 -0.09671714 99.2616483 -0.09716678 C100.37212834 -0.09749892 100.37212834 -0.09749892 101.50504233 -0.09783778 C113.5048532 -0.10178702 125.5046034 -0.11924374 137.50439082 -0.1425263 C149.81366448 -0.16621727 162.12290765 -0.17870113 174.43220448 -0.17986822 C181.34775616 -0.18078626 188.26322879 -0.18657089 195.17875874 -0.20468783 C201.68100044 -0.22166157 208.18311822 -0.22335834 214.68538487 -0.21454883 C217.07716472 -0.21377468 219.46895242 -0.21817036 221.86071217 -0.22800708 C225.11562343 -0.24061274 228.36999253 -0.23491196 231.62489903 -0.22442508 C233.05820083 -0.23650968 233.05820083 -0.23650968 234.52045822 -0.24883842 C235.82431605 -0.23895366 235.82431605 -0.23895366 237.15451443 -0.2288692 C237.90619833 -0.22946629 238.65788224 -0.23006338 239.43234444 -0.23067856 C241.90561891 0.24055084 242.8054658 1.24365931 244.39397252 3.1430676 C242.51897252 7.0180676 242.51897252 7.0180676 241.39397252 8.1430676 C238.21302106 8.24560434 235.05363771 8.28190891 231.87213719 8.27678037 C230.85997291 8.27904592 229.84780863 8.28131148 228.80497271 8.28364569 C225.38549061 8.29001737 221.96604782 8.28915431 218.54656041 8.28833127 C216.10633873 8.29132078 213.66611753 8.29472282 211.22589695 8.29850888 C205.26898218 8.30645173 199.31208309 8.30956444 193.35516448 8.31012126 C188.51538642 8.31059566 183.67561164 8.3126466 178.83583462 8.31582189 C165.12816539 8.32463281 151.420504 8.32924058 137.71283192 8.32849141 C136.97314787 8.32845146 136.23346382 8.3284115 135.47136509 8.32837033 C134.73078275 8.32832945 133.99020041 8.32828857 133.22717618 8.32824645 C121.22023779 8.32783985 109.21333074 8.33741177 97.20640142 8.3515087 C84.89148272 8.36585368 72.57657932 8.37277992 60.26165205 8.37191492 C53.34224 8.3715823 46.42286079 8.37435772 39.50345623 8.38509297 C32.99877158 8.39511975 26.49414468 8.39488189 19.98945248 8.38757634 C17.59564309 8.38652531 15.20182946 8.38892381 12.80802739 8.3949368 C9.55286526 8.40258683 6.29794786 8.39805865 3.04279149 8.39030576 C1.60512042 8.3980211 1.60512042 8.3980211 0.1384055 8.40589231 C-0.728842 8.40129352 -1.5960895 8.39669472 -2.48961723 8.39195657 C-3.24168085 8.39217394 -3.99374447 8.3923913 -4.7685979 8.39261526 C-6.60602748 8.1430676 -6.60602748 8.1430676 -8.60602748 6.1430676 C-7.81300168 -0.35974396 -6.3198618 0.0280959 0 0 Z " fill="#343031" transform="translate(139.60602748394012,355.8569324016571)"/>
<path d="M0 0 C1.43999397 0.00129972 1.43999397 0.00129972 2.90907872 0.0026257 C3.92053743 -0.00034542 4.93199614 -0.00331654 5.97410512 -0.0063777 C9.3912501 -0.01510633 12.80836022 -0.01657644 16.22551548 -0.01806521 C18.66411489 -0.02269042 21.10271356 -0.02771467 23.54131138 -0.03311038 C30.18587113 -0.0462645 36.83041713 -0.05272139 43.47498667 -0.05712104 C47.62104972 -0.05988029 51.76711042 -0.06411706 55.91317189 -0.06862521 C67.38418697 -0.08082043 78.85520016 -0.0911192 90.32622159 -0.0945003 C91.06089937 -0.09471987 91.79557715 -0.09493944 92.5525179 -0.09516566 C93.65722683 -0.09549307 93.65722683 -0.09549307 94.78425312 -0.0958271 C96.27671818 -0.09627057 97.76918324 -0.09671714 99.2616483 -0.09716678 C100.37212834 -0.09749892 100.37212834 -0.09749892 101.50504233 -0.09783778 C113.5048532 -0.10178702 125.5046034 -0.11924374 137.50439082 -0.1425263 C149.81366448 -0.16621727 162.12290765 -0.17870113 174.43220448 -0.17986822 C181.34775616 -0.18078626 188.26322879 -0.18657089 195.17875874 -0.20468783 C201.68100044 -0.22166157 208.18311822 -0.22335834 214.68538487 -0.21454883 C217.07716472 -0.21377468 219.46895242 -0.21817036 221.86071217 -0.22800708 C225.11562343 -0.24061274 228.36999253 -0.23491196 231.62489903 -0.22442508 C233.05820083 -0.23650968 233.05820083 -0.23650968 234.52045822 -0.24883842 C235.82431605 -0.23895366 235.82431605 -0.23895366 237.15451443 -0.2288692 C237.90619833 -0.22946629 238.65788224 -0.23006338 239.43234444 -0.23067856 C241.90561891 0.24055084 242.8054658 1.24365931 244.39397252 3.1430676 C242.51897252 7.0180676 242.51897252 7.0180676 241.39397252 8.1430676 C238.21302106 8.24560434 235.05363771 8.28190891 231.87213719 8.27678037 C230.85997291 8.27904592 229.84780863 8.28131148 228.80497271 8.28364569 C225.38549061 8.29001737 221.96604782 8.28915431 218.54656041 8.28833127 C216.10633873 8.29132078 213.66611753 8.29472282 211.22589695 8.29850888 C205.26898218 8.30645173 199.31208309 8.30956444 193.35516448 8.31012126 C188.51538642 8.31059566 183.67561164 8.3126466 178.83583462 8.31582189 C165.12816539 8.32463281 151.420504 8.32924058 137.71283192 8.32849141 C136.97314787 8.32845146 136.23346382 8.3284115 135.47136509 8.32837033 C134.73078275 8.32832945 133.99020041 8.32828857 133.22717618 8.32824645 C121.22023779 8.32783985 109.21333074 8.33741177 97.20640142 8.3515087 C84.89148272 8.36585368 72.57657932 8.37277992 60.26165205 8.37191492 C53.34224 8.3715823 46.42286079 8.37435772 39.50345623 8.38509297 C32.99877158 8.39511975 26.49414468 8.39488189 19.98945248 8.38757634 C17.59564309 8.38652531 15.20182946 8.38892381 12.80802739 8.3949368 C9.55286526 8.40258683 6.29794786 8.39805865 3.04279149 8.39030576 C1.60512042 8.3980211 1.60512042 8.3980211 0.1384055 8.40589231 C-0.728842 8.40129352 -1.5960895 8.39669472 -2.48961723 8.39195657 C-3.24168085 8.39217394 -3.99374447 8.3923913 -4.7685979 8.39261526 C-6.60602748 8.1430676 -6.60602748 8.1430676 -8.60602748 6.1430676 C-7.81300168 -0.35974396 -6.3198618 0.0280959 0 0 Z " fill="#343031" transform="translate(139.60602748394012,316.8569324016571)"/>
<path d="M0 0 C1.43999397 0.00129972 1.43999397 0.00129972 2.90907872 0.0026257 C3.92053743 -0.00034542 4.93199614 -0.00331654 5.97410512 -0.0063777 C9.3912501 -0.01510633 12.80836022 -0.01657644 16.22551548 -0.01806521 C18.66411489 -0.02269042 21.10271356 -0.02771467 23.54131138 -0.03311038 C30.18587113 -0.0462645 36.83041713 -0.05272139 43.47498667 -0.05712104 C47.62104972 -0.05988029 51.76711042 -0.06411706 55.91317189 -0.06862521 C67.38418697 -0.08082043 78.85520016 -0.0911192 90.32622159 -0.0945003 C91.06089937 -0.09471987 91.79557715 -0.09493944 92.5525179 -0.09516566 C93.65722683 -0.09549307 93.65722683 -0.09549307 94.78425312 -0.0958271 C96.27671818 -0.09627057 97.76918324 -0.09671714 99.2616483 -0.09716678 C100.37212834 -0.09749892 100.37212834 -0.09749892 101.50504233 -0.09783778 C113.5048532 -0.10178702 125.5046034 -0.11924374 137.50439082 -0.1425263 C149.81366448 -0.16621727 162.12290765 -0.17870113 174.43220448 -0.17986822 C181.34775616 -0.18078626 188.26322879 -0.18657089 195.17875874 -0.20468783 C201.68100044 -0.22166157 208.18311822 -0.22335834 214.68538487 -0.21454883 C217.07716472 -0.21377468 219.46895242 -0.21817036 221.86071217 -0.22800708 C225.11562343 -0.24061274 228.36999253 -0.23491196 231.62489903 -0.22442508 C233.05820083 -0.23650968 233.05820083 -0.23650968 234.52045822 -0.24883842 C235.82431605 -0.23895366 235.82431605 -0.23895366 237.15451443 -0.2288692 C237.90619833 -0.22946629 238.65788224 -0.23006338 239.43234444 -0.23067856 C241.90561891 0.24055084 242.8054658 1.24365931 244.39397252 3.1430676 C242.51897252 7.0180676 242.51897252 7.0180676 241.39397252 8.1430676 C238.21302106 8.24560434 235.05363771 8.28190891 231.87213719 8.27678037 C230.85997291 8.27904592 229.84780863 8.28131148 228.80497271 8.28364569 C225.38549061 8.29001737 221.96604782 8.28915431 218.54656041 8.28833127 C216.10633873 8.29132078 213.66611753 8.29472282 211.22589695 8.29850888 C205.26898218 8.30645173 199.31208309 8.30956444 193.35516448 8.31012126 C188.51538642 8.31059566 183.67561164 8.3126466 178.83583462 8.31582189 C165.12816539 8.32463281 151.420504 8.32924058 137.71283192 8.32849141 C136.97314787 8.32845146 136.23346382 8.3284115 135.47136509 8.32837033 C134.73078275 8.32832945 133.99020041 8.32828857 133.22717618 8.32824645 C121.22023779 8.32783985 109.21333074 8.33741177 97.20640142 8.3515087 C84.89148272 8.36585368 72.57657932 8.37277992 60.26165205 8.37191492 C53.34224 8.3715823 46.42286079 8.37435772 39.50345623 8.38509297 C32.99877158 8.39511975 26.49414468 8.39488189 19.98945248 8.38757634 C17.59564309 8.38652531 15.20182946 8.38892381 12.80802739 8.3949368 C9.55286526 8.40258683 6.29794786 8.39805865 3.04279149 8.39030576 C1.60512042 8.3980211 1.60512042 8.3980211 0.1384055 8.40589231 C-0.728842 8.40129352 -1.5960895 8.39669472 -2.48961723 8.39195657 C-3.24168085 8.39217394 -3.99374447 8.3923913 -4.7685979 8.39261526 C-6.60602748 8.1430676 -6.60602748 8.1430676 -8.60602748 6.1430676 C-7.81300168 -0.35974396 -6.3198618 0.0280959 0 0 Z " fill="#343031" transform="translate(139.60602748394012,277.8569324016571)"/>
<path d="M0 0 C0.91898575 0.00202423 1.8379715 0.00404846 2.7848053 0.00613403 C4.22861069 0.00350555 4.22861069 0.00350555 5.70158386 0.00082397 C8.90064773 -0.0035968 12.09965683 -0.00065553 15.29872131 0.00271606 C17.51210541 0.00204303 19.72548944 0.00107302 21.93887329 -0.00018311 C26.58527833 -0.00166043 31.2316642 0.00049538 35.87806702 0.00515747 C41.84495542 0.01085145 47.81179882 0.00757806 53.77868557 0.00158501 C58.35189149 -0.00202251 62.92508668 -0.00088108 67.49829292 0.0017128 C69.69880745 0.00238171 71.89932294 0.00155488 74.09983635 -0.00076675 C77.17193571 -0.00329601 80.24396145 0.00055138 83.3160553 0.00613403 C84.69149757 0.00309769 84.69149757 0.00309769 86.09472656 0 C92.38660158 0.02126557 92.38660158 0.02126557 94.61512756 1.13552856 C94.74012756 3.51052856 94.74012756 3.51052856 94.61512756 6.13552856 C91.90788131 8.84277482 89.78319999 8.3816847 86.10583496 8.40658569 C85.19044449 8.40253723 84.27505402 8.39848877 83.33192444 8.39431763 C81.88790001 8.39957458 81.88790001 8.39957458 80.41470337 8.40493774 C77.22102219 8.41376634 74.02756113 8.4079019 70.83387756 8.40115356 C68.62192238 8.40249989 66.40996748 8.40444015 64.19801331 8.4069519 C59.55756315 8.4099047 54.91718989 8.40560051 50.27674866 8.39627075 C44.31768932 8.38487617 38.35881011 8.39143481 32.39975739 8.40341568 C27.83083225 8.41063007 23.26195008 8.40834828 18.69302368 8.4031601 C16.49530008 8.40182243 14.29757262 8.40347537 12.09985352 8.4081192 C9.03257357 8.4131775 5.96558857 8.40548395 2.89833069 8.39431763 C1.98294022 8.39836609 1.06754974 8.40241455 0.12442017 8.40658569 C-6.15634502 8.36405598 -6.15634502 8.36405598 -8.38487244 6.13552856 C-7.6048631 -0.26054797 -6.23212932 0.02113507 0 0 Z " fill="#363233" transform="translate(288.38487243652344,238.86447143554688)"/>
<path d="M0 0 C1.53140625 0.24363281 1.53140625 0.24363281 3.09375 0.4921875 C6.62017064 0.95062218 9.9490435 1.13361883 13.5 1.125 C15.09328125 1.12886719 15.09328125 1.12886719 16.71875 1.1328125 C20.20122342 0.99185524 23.5598903 0.54729018 27 0 C27.48892282 8.24649822 27.897989 15.18664776 23.484375 22.4609375 C21.10593772 24.92700142 18.87797876 24.93949826 15.5625 25.16796875 C14.716875 25.17441406 13.87125 25.18085938 13 25.1875 C12.154375 25.20167969 11.30875 25.21585938 10.4375 25.23046875 C7.77138291 24.97838396 6.2388038 24.45426572 4 23 C-1.0657807 15.82347734 -0.39397469 8.40479347 0 0 Z " fill="#FBC4C4" transform="translate(180,173)"/>
<path d="M0 0 C0.66178253 -0.00175232 1.32356506 -0.00350464 2.00540161 -0.00531006 C4.20284615 -0.00972764 6.40021083 -0.00679094 8.59765625 -0.00341797 C10.11840836 -0.00409104 11.63916037 -0.00506108 13.15991211 -0.00631714 C16.35108461 -0.00779398 19.54222917 -0.00563999 22.73339844 -0.00097656 C26.83280155 0.00472073 30.93213921 0.00144165 35.03153992 -0.00454903 C38.17297869 -0.008155 41.31440183 -0.00701589 44.45584106 -0.00442123 C45.96778369 -0.00375207 47.47972771 -0.00458003 48.9916687 -0.00690079 C51.10125512 -0.00942792 53.21073412 -0.00558591 55.3203125 0 C56.52308838 0.00079559 57.72586426 0.00159119 58.96508789 0.00241089 C61.66015625 0.12939453 61.66015625 0.12939453 62.66015625 1.12939453 C62.84765625 3.56689453 62.84765625 3.56689453 62.66015625 6.12939453 C59.8792374 8.91031338 58.209304 8.38293053 54.31445312 8.38818359 C53.66388443 8.39168823 53.01331573 8.39519287 52.34303284 8.39880371 C50.18821608 8.40762082 48.03372647 8.40177216 45.87890625 8.39501953 C44.38439877 8.39636619 42.88989172 8.39830673 41.39538574 8.40081787 C38.26143223 8.4037691 35.12759263 8.39947161 31.99365234 8.39013672 C27.97165612 8.3787421 23.9499268 8.38530159 19.92794037 8.39728165 C16.84134908 8.40450033 13.75482132 8.4022123 10.66822815 8.39702606 C9.18502267 8.39568958 7.70181147 8.39733722 6.21861267 8.40198517 C4.14753894 8.40705065 2.07690059 8.39934037 0.00585938 8.38818359 C-1.17391479 8.38659241 -2.35368896 8.38500122 -3.56921387 8.38336182 C-6.33984375 8.12939453 -6.33984375 8.12939453 -8.33984375 6.12939453 C-7.55886909 -0.27459764 -6.17719469 0.00408599 0 0 Z " fill="#363233" transform="translate(320.33984375,160.87060546875)"/>
<path d="M0 0 C0.65042267 -0.00175232 1.30084534 -0.00350464 1.97097778 -0.00531006 C4.13115063 -0.00972814 6.29124226 -0.00679042 8.45141602 -0.00341797 C9.94735225 -0.0040911 11.44328838 -0.00506121 12.93922424 -0.00631714 C16.0791223 -0.00779412 19.21899196 -0.00563986 22.35888672 -0.00097656 C26.38868951 0.00471582 30.41842564 0.00144485 34.44822598 -0.00454903 C37.53909306 -0.00815883 40.62994429 -0.00701403 43.72081184 -0.00442123 C45.20680817 -0.00375287 46.69280592 -0.00457723 48.17880058 -0.00690079 C50.25465595 -0.00943363 52.33040274 -0.00557756 54.40625 0 C56.18043556 0.00119339 56.18043556 0.00119339 57.99046326 0.00241089 C60.76782227 0.12939453 60.76782227 0.12939453 62.76782227 1.12939453 C62.89282227 3.50439453 62.89282227 3.50439453 62.76782227 6.12939453 C59.98690341 8.91031338 58.31697001 8.38293053 54.42211914 8.38818359 C53.77155045 8.39168823 53.12098175 8.39519287 52.45069885 8.39880371 C50.29588209 8.40762082 48.14139248 8.40177216 45.98657227 8.39501953 C44.49206479 8.39636619 42.99755773 8.39830673 41.50305176 8.40081787 C38.36909825 8.4037691 35.23525865 8.39947161 32.10131836 8.39013672 C28.07932213 8.3787421 24.05759281 8.38530159 20.03560638 8.39728165 C16.9490151 8.40450033 13.86248734 8.4022123 10.77589417 8.39702606 C9.29268869 8.39568958 7.80947748 8.39733722 6.32627869 8.40198517 C4.25520495 8.40705065 2.1845666 8.39934037 0.11352539 8.38818359 C-1.06624878 8.38659241 -2.24602295 8.38500122 -3.46154785 8.38336182 C-6.23217773 8.12939453 -6.23217773 8.12939453 -8.23217773 6.12939453 C-7.45769299 -0.22138033 -6.13003474 0.00412609 0 0 Z " fill="#353233" transform="translate(320.232177734375,199.87060546875)"/>
<path d="M0 0 C2.31 0 4.62 0 7 0 C10.3 6.6 13.6 13.2 17 20 C13.27792613 20 11.53604411 18.82035432 8.3125 17 C7.31863281 16.443125 6.32476562 15.88625 5.30078125 15.3125 C4.16189453 14.6628125 4.16189453 14.6628125 3 14 C3.32097656 13.39027344 3.64195312 12.78054687 3.97265625 12.15234375 C5.26847901 9.43752116 5.50835361 7.97749971 5 5 C2.60416349 2.18668622 2.60416349 2.18668622 0 0 Z " fill="#E2E2E3" transform="translate(168,192)"/>
<path d="M0 0 C1.98 0 3.96 0 6 0 C5.154375 0.721875 4.30875 1.44375 3.4375 2.1875 C0.68973514 4.70356788 0.68973514 4.70356788 1.125 7.5625 C1.41375 8.366875 1.7025 9.17125 2 10 C2.33 11.32 2.66 12.64 3 14 C-2.94 17.465 -2.94 17.465 -9 21 C-9.33 20.34 -9.66 19.68 -10 19 C-9.19555664 17.02880859 -9.19555664 17.02880859 -7.91015625 14.6484375 C-7.45576172 13.79765625 -7.00136719 12.946875 -6.53320312 12.0703125 C-5.80520508 10.73613281 -5.80520508 10.73613281 -5.0625 9.375 C-4.58103516 8.4778125 -4.09957031 7.580625 -3.60351562 6.65625 C-2.40941284 4.43356364 -1.20800619 2.21515174 0 0 Z " fill="#E7E7E8" transform="translate(213,192)"/>
<path d="M0 0 C2.97 0 5.94 0 9 0 C7.81323934 4.10801767 7.10551666 5.89448334 4 9 C2.68 6.03 1.36 3.06 0 0 Z " fill="#9198B2" transform="translate(189,205)"/>
</svg>
